<svg width="81" height="80" viewBox="0 0 81 80" fill="none" xmlns="http://www.w3.org/2000/svg">
<path fill-rule="evenodd" clip-rule="evenodd" d="M39.0916 21.7629V32.6507H40.2838H41.4759V21.7629V10.875H40.2838H39.0916V21.7629ZM35.515 14.9888C31.3807 15.7766 27.5306 17.5759 24.1041 20.3215C22.6632 21.4761 20.6565 23.633 19.4404 25.3342C18.0146 27.3285 16.5827 30.21 15.9059 32.4466C15.5695 33.5581 15.0435 35.8897 15.0435 36.2693C15.0435 36.3001 15.5876 36.3252 16.2527 36.325L17.462 36.3246L17.6233 35.4914C18.6897 29.9836 21.8647 24.9621 26.4537 21.5247C29.2971 19.395 32.6378 17.9195 36.0089 17.3044L36.6391 17.1894V16.0056V14.8219L36.4858 14.8274C36.4015 14.8305 35.9646 14.9031 35.515 14.9888ZM43.9284 15.9991V17.1764L45.1051 17.426C52.99 19.0983 59.4742 24.8369 62.1159 32.4806C62.451 33.4502 62.8177 34.822 62.9753 35.6959L63.0888 36.3254H64.3064C64.9761 36.3254 65.524 36.3015 65.524 36.2722C65.524 36.0868 65.1387 34.2395 64.9461 33.5014C62.6405 24.6667 55.4581 17.5644 46.5739 15.3341C45.6925 15.1128 44.2411 14.8219 44.0187 14.8219C43.9472 14.8219 43.9284 15.0671 43.9284 15.9991ZM35.9163 27.4066C33.0772 28.4052 30.6797 30.289 29.0459 32.8048C28.5275 33.6032 27.9839 34.7072 27.6862 35.5664C27.552 35.9537 27.4422 36.2835 27.4422 36.2995C27.4422 36.3154 28.014 36.3201 28.7128 36.3099L29.9833 36.2914L30.0674 36.0486C30.2398 35.5507 30.7137 34.6369 31.1237 34.0112C32.3499 32.1402 34.142 30.6697 36.2288 29.822L36.605 29.6692L36.6236 28.4379C36.6381 27.4759 36.6232 27.2074 36.5555 27.2095C36.5078 27.2111 36.2202 27.2998 35.9163 27.4066ZM43.9284 28.4352V29.6637L44.1498 29.7393C44.6974 29.9264 46.1323 30.7177 46.7216 31.1575C47.8051 31.9662 48.7878 33.0025 49.4694 34.0552C49.7839 34.5409 50.3828 35.7098 50.5231 36.1121L50.5976 36.3254H51.866H53.1345L53.0882 36.1723C52.9183 35.6111 52.5094 34.6173 52.1924 33.9953C50.8508 31.3631 48.8019 29.3587 46.0598 27.9954C45.5236 27.7289 44.1534 27.2068 43.99 27.2068C43.9556 27.2068 43.9284 27.7494 43.9284 28.4352ZM39.3781 36.4994C38.5223 36.7295 37.6763 37.3407 37.2171 38.0606C36.5378 39.1255 36.468 40.4516 37.0294 41.6206C37.2812 42.1451 38.0487 42.9132 38.597 43.1895C40.0149 43.9042 41.6624 43.6701 42.7512 42.5993C45.0699 40.3189 43.4786 36.3698 40.2524 36.3979C39.9699 36.4004 39.5765 36.446 39.3781 36.4994ZM11.0923 40V41.1569H22.0263H32.9603V40V38.8432H22.0263H11.0923V40ZM47.6072 40V41.1569H58.5412H69.4752V40V38.8432H58.5412H47.6072V40ZM15.0435 43.7308C15.0435 43.9229 15.3509 45.4328 15.5557 46.2468C16.4624 49.8506 18.1587 53.186 20.6122 56.1894C21.3626 57.108 23.1105 58.8524 24.036 59.6064C27.3715 62.3239 31.0824 64.0974 35.1885 64.9366C35.6304 65.0269 36.1375 65.1217 36.3155 65.1473L36.6391 65.1937V63.9982V62.8027L36.3836 62.7596C34.8937 62.5084 32.6855 61.8587 31.2719 61.2555C24.3631 58.3079 19.3229 52.2266 17.7024 44.8831C17.5889 44.3687 17.496 43.8864 17.496 43.8113C17.496 43.6796 17.4521 43.6747 16.2698 43.6747C15.5953 43.6747 15.0435 43.7 15.0435 43.7308ZM27.4584 43.7583C27.476 43.8058 27.5759 44.1031 27.6805 44.4188C27.9481 45.227 28.7917 46.858 29.3341 47.6156C30.6454 49.4476 32.2879 50.8695 34.2388 51.8618C34.9159 52.2061 36.0102 52.6509 36.4517 52.7612L36.6391 52.8081V51.5699V50.3317L36.4177 50.2538C36.2959 50.211 35.8131 49.9847 35.3447 49.7508C33.1129 48.6366 31.1886 46.5937 30.23 44.3212L29.9716 43.7087L28.6991 43.6902C27.6916 43.6755 27.4331 43.6897 27.4584 43.7583ZM50.4815 43.9301C50.4394 44.0705 50.2655 44.4716 50.0951 44.8214C49.0727 46.9196 47.315 48.6996 45.2228 49.7554C44.7544 49.9918 44.2716 50.2192 44.1498 50.2608L43.9284 50.3364V51.5722V52.8081L44.1158 52.7612C44.2188 52.7355 44.5944 52.6058 44.9503 52.4731C48.536 51.136 51.4829 48.1916 52.8024 44.6274C52.9341 44.2718 53.0627 43.9121 53.0882 43.8278L53.1345 43.6747H51.8463H50.5581L50.4815 43.9301ZM63.0342 43.9299C61.9433 50.3309 58.0788 56.0671 52.4781 59.5988C50.1206 61.0854 46.8834 62.3247 44.218 62.7611L43.9284 62.8085V64.0011V65.1937L44.252 65.1473C44.8292 65.0644 46.1922 64.7724 46.96 64.5672C49.7079 63.8324 52.5591 62.4894 54.9647 60.7966C57.9576 58.6905 60.6704 55.6971 62.4952 52.4871C63.8525 50.0995 64.8838 47.2727 65.3502 44.6614C65.4104 44.3246 65.4766 43.9647 65.4972 43.8618L65.5348 43.6747H64.3063H63.0777L63.0342 43.9299ZM39.0916 58.2135V69.1251H40.2838H41.4759V58.2185V47.3119L40.2838 47.3069L39.0916 47.3018V58.2135Z" fill="#1A1A1A"/>
</svg>
