<svg width="139" height="168" viewBox="0 0 139 168" fill="none" xmlns="http://www.w3.org/2000/svg">
<path fill-rule="evenodd" clip-rule="evenodd" d="M60.1005 48.1843C53.7587 48.1843 48.6177 53.3254 48.6177 59.6671V126.23C48.6177 132.572 53.7587 137.713 60.1005 137.713H126.701C133.043 137.713 138.184 132.572 138.184 126.23V59.6671C138.184 53.3254 133.043 48.1843 126.702 48.1843H60.1005ZM63.0729 53.9773C57.9994 53.9773 53.8866 58.0902 53.8866 63.1636V123.26C53.8866 128.334 57.9994 132.447 63.0729 132.447H123.73C128.803 132.447 132.916 128.334 132.916 123.26V63.1636C132.916 58.0902 128.803 53.9773 123.73 53.9773H63.0729Z" fill="#ECB959"/>
<path fill-rule="evenodd" clip-rule="evenodd" d="M129.755 102.955H57.0479V120.101C57.0479 125.174 61.1607 129.287 66.2341 129.287H120.569C125.642 129.287 129.755 125.174 129.755 120.101V102.955ZM71.9003 109.15C71.9003 108.387 72.5193 107.768 73.2829 107.768C74.0464 107.768 74.6655 108.387 74.6655 109.15C74.6655 109.422 74.8488 109.656 75.1037 109.75C75.2318 109.798 75.3575 109.85 75.4806 109.907C75.7276 110.02 76.0235 109.984 76.2158 109.792C76.7557 109.252 77.6311 109.252 78.1711 109.792C78.711 110.332 78.711 111.207 78.1711 111.746C77.9788 111.939 77.9425 112.234 78.0564 112.481C78.1132 112.604 78.1653 112.73 78.2126 112.858C78.3068 113.113 78.5415 113.296 78.8133 113.296C79.5768 113.296 80.1959 113.915 80.1959 114.678C80.1959 115.441 79.5768 116.06 78.8133 116.06C78.5415 116.06 78.3068 116.243 78.2126 116.498C78.1551 116.654 78.0904 116.806 78.019 116.954C77.9198 117.16 77.9505 117.409 78.1121 117.57C78.6521 118.11 78.6521 118.985 78.1121 119.525C77.5722 120.065 76.6968 120.065 76.1568 119.525C75.9918 119.36 75.738 119.328 75.527 119.428C75.3891 119.493 75.2479 119.552 75.1037 119.606C74.8488 119.7 74.6655 119.934 74.6655 120.206C74.6655 120.969 74.0464 121.588 73.2829 121.588C72.5193 121.588 71.9003 120.969 71.9003 120.206C71.9003 119.934 71.7169 119.7 71.462 119.606C71.3339 119.558 71.2082 119.506 71.0851 119.45C70.8381 119.336 70.5423 119.372 70.3499 119.564C69.81 120.104 68.9346 120.104 68.3946 119.564C67.8547 119.024 67.8547 118.149 68.3946 117.61C68.587 117.417 68.6232 117.122 68.5093 116.875C68.4526 116.752 68.4004 116.626 68.3531 116.498C68.2589 116.243 68.0242 116.06 67.7525 116.06C66.9889 116.06 66.3699 115.441 66.3699 114.678C66.3699 113.915 66.9889 113.296 67.7525 113.296C68.0242 113.296 68.2589 113.113 68.3531 112.858C68.3902 112.757 68.4303 112.659 68.4733 112.561C68.6005 112.273 68.5587 111.93 68.3357 111.707C67.7957 111.167 67.7957 110.292 68.3357 109.753C68.8756 109.213 69.751 109.213 70.291 109.753C70.5106 109.972 70.8485 110.012 71.1318 109.885C71.24 109.837 71.3501 109.792 71.462 109.75C71.7169 109.656 71.9003 109.422 71.9003 109.15ZM75.9098 114.678C75.9098 116.128 74.7337 117.304 73.2829 117.304C71.832 117.304 70.6559 116.128 70.6559 114.678C70.6559 113.228 71.832 112.052 73.2829 112.052C74.7337 112.052 75.9098 113.228 75.9098 114.678ZM85.0152 112.06C85.0025 111.297 85.6112 110.668 86.3747 110.655C87.1382 110.643 87.7674 111.251 87.78 112.014C87.7845 112.286 87.9717 112.517 88.2281 112.607C88.3569 112.652 88.4835 112.702 88.6075 112.757C88.8564 112.867 89.1516 112.826 89.3407 112.63C89.8717 112.082 90.747 112.067 91.2958 112.598C91.8446 113.129 91.859 114.004 91.3281 114.552C91.139 114.748 91.1076 115.044 91.2256 115.289C91.2844 115.411 91.3386 115.536 91.388 115.663C91.4864 115.916 91.7241 116.096 91.9958 116.091C92.7593 116.078 93.3885 116.687 93.4011 117.45C93.4137 118.213 92.805 118.842 92.0415 118.855C91.7698 118.859 91.5382 119.046 91.4482 119.303C91.3933 119.459 91.3312 119.612 91.2622 119.762C91.1664 119.969 91.2012 120.218 91.3655 120.376C91.9143 120.907 91.9288 121.782 91.3978 122.331C90.8669 122.879 89.9916 122.894 89.4428 122.363C89.2751 122.201 89.0208 122.173 88.8115 122.276C88.6747 122.344 88.5345 122.406 88.3912 122.461C88.1379 122.56 87.9584 122.797 87.9629 123.069C87.9755 123.832 87.3668 124.461 86.6033 124.473C85.8399 124.486 85.2107 123.878 85.1981 123.114C85.1936 122.843 85.0063 122.611 84.7499 122.521C84.6211 122.476 84.4946 122.426 84.3705 122.371C84.1217 122.262 83.8265 122.303 83.6373 122.498C83.1064 123.047 82.2311 123.061 81.6823 122.531C81.1335 122 81.119 121.125 81.65 120.576C81.8391 120.381 81.8705 120.085 81.7525 119.84C81.6937 119.718 81.6395 119.593 81.59 119.466C81.4917 119.212 81.254 119.033 80.9823 119.038C80.2188 119.05 79.5896 118.442 79.577 117.679C79.5644 116.915 80.173 116.287 80.9365 116.274C81.2082 116.269 81.4399 116.082 81.5298 115.826C81.5653 115.725 81.6037 115.625 81.6451 115.527C81.7676 115.237 81.7201 114.895 81.4934 114.676C80.9446 114.145 80.9301 113.27 81.461 112.721C81.992 112.173 82.8673 112.158 83.4161 112.689C83.6393 112.905 83.9779 112.94 84.259 112.808C84.3664 112.757 84.4757 112.711 84.5869 112.667C84.8402 112.569 85.0197 112.331 85.0152 112.06ZM89.1156 117.521C89.1396 118.971 87.9831 120.166 86.5325 120.19C85.0819 120.214 83.8864 119.058 83.8625 117.608C83.8385 116.158 84.995 114.963 86.4456 114.939C87.8962 114.915 89.0916 116.071 89.1156 117.521Z" fill="#ECB959"/>
<rect x="74.9609" y="97.1619" width="36.8804" height="4.21311" fill="#ECB959"/>
<rect x="74.9609" y="91.8955" width="36.8804" height="4.21311" fill="#ECB959"/>
<rect x="57.0479" y="65.0369" width="72.707" height="4.21311" fill="#ECB959"/>
<rect x="74.9609" y="86.6289" width="16.3327" height="4.21311" fill="#ECB959"/>
<rect x="95.5088" y="82.4158" width="4.21311" height="4.2149" transform="rotate(90 95.5088 82.4158)" fill="#ECB959"/>
<path d="M87.0261 86.6289C87.0261 87.4622 87.2749 88.2768 87.7409 88.9696C88.2069 89.6624 88.8694 90.2025 89.6444 90.5213C90.4194 90.8402 91.2722 90.9237 92.0949 90.7611C92.9176 90.5985 93.6734 90.1973 94.2665 89.608C94.8597 89.0188 95.2636 88.2681 95.4273 87.4509C95.5909 86.6336 95.507 85.7865 95.1859 85.0166C94.8649 84.2468 94.3213 83.5888 93.6238 83.1258C92.9263 82.6629 92.1063 82.4158 91.2674 82.4158L91.2674 86.6289L87.0261 86.6289Z" fill="#ECB959"/>
<rect x="83.9175" y="61.877" width="18.9671" height="11.0594" fill="#ECB959"/>
<rect x="89.7129" y="69.25" width="7.37608" height="7.37295" fill="#ECB959"/>
<path d="M93.4009 79.7827L97.0889 76.6229H89.7129L93.4009 79.7827Z" fill="#ECB959"/>
<path d="M62.7108 155.249C63.5948 155.717 64.2795 156.35 64.7648 157.147C65.2675 157.927 65.5188 158.794 65.5188 159.747C65.5188 160.804 65.2242 161.732 64.6348 162.529C64.0455 163.326 63.2135 163.942 62.1388 164.375C61.0642 164.808 59.8422 165.025 58.4728 165.025C57.4675 165.025 56.5055 164.904 55.5868 164.661C54.6855 164.418 53.7842 164.046 52.8828 163.543V160.189H52.9868C54.7895 161.437 56.5748 162.061 58.3428 162.061C59.4522 162.061 60.3362 161.844 60.9948 161.411C61.6535 160.96 61.9828 160.345 61.9828 159.565C61.9828 158.716 61.6102 158.031 60.8648 157.511C60.1195 156.974 59.1142 156.705 57.8488 156.705H56.7568V153.845H57.8488C59.0275 153.845 59.9548 153.628 60.6308 153.195C61.3068 152.762 61.6448 152.164 61.6448 151.401C61.6448 150.725 61.3588 150.205 60.7868 149.841C60.2322 149.477 59.4522 149.295 58.4468 149.295C57.6668 149.295 56.8782 149.416 56.0808 149.659C55.3008 149.902 54.4428 150.283 53.5068 150.803H53.4028V147.579C55.0495 146.73 56.7828 146.305 58.6028 146.305C60.5788 146.305 62.1562 146.738 63.3348 147.605C64.5308 148.454 65.1288 149.616 65.1288 151.089C65.1288 151.956 64.9122 152.753 64.4788 153.481C64.0628 154.192 63.4735 154.781 62.7108 155.249ZM80.5239 146.617C82.3785 146.617 83.9732 146.99 85.3079 147.735C86.6425 148.463 87.6565 149.512 88.3499 150.881C89.0432 152.233 89.3899 153.828 89.3899 155.665C89.3899 157.502 89.0432 159.106 88.3499 160.475C87.6565 161.827 86.6425 162.876 85.3079 163.621C83.9732 164.349 82.3785 164.713 80.5239 164.713H73.8419V146.617H80.5239ZM80.5239 161.671C82.1705 161.671 83.4532 161.16 84.3719 160.137C85.3079 159.114 85.7759 157.624 85.7759 155.665C85.7759 153.706 85.3079 152.216 84.3719 151.193C83.4532 150.17 82.1705 149.659 80.5239 149.659H77.2739V161.671H80.5239ZM110.405 160.761H107.909V164.713H104.477V160.761H96.365V158.083L104.477 146.617H107.909V157.823H110.405V160.761ZM104.477 157.823V151.453L100.369 157.823H104.477ZM125.514 165.025C123.105 165.025 121.215 164.332 119.846 162.945C118.477 161.558 117.792 159.652 117.792 157.225V146.617H121.224V157.147C121.224 158.811 121.597 160.042 122.342 160.839C123.087 161.619 124.145 162.009 125.514 162.009C126.901 162.009 127.958 161.61 128.686 160.813C129.431 159.998 129.804 158.776 129.804 157.147V146.617H133.236V157.225C133.236 159.652 132.551 161.558 131.182 162.945C129.813 164.332 127.923 165.025 125.514 165.025Z" fill="#F3B562"/>
<mask id="mask0_795_15574" style="mask-type:alpha" maskUnits="userSpaceOnUse" x="15" y="14" width="86" height="86">
<path fill-rule="evenodd" clip-rule="evenodd" d="M20.4641 37.4567C20.5965 37.1977 20.9139 37.0951 21.1729 37.2275L23.8972 38.6199C24.3961 37.7023 24.9269 36.8125 25.4875 35.9511L22.9715 34.2157C22.732 34.0506 22.6717 33.7226 22.8369 33.4831L23.3802 32.6958C23.5454 32.4563 23.8735 32.3962 24.113 32.5613L26.627 34.2952C27.2338 33.4605 27.8698 32.6554 28.5329 31.8807L26.2683 29.8367C26.0523 29.6417 26.0353 29.3087 26.2302 29.0928L26.8714 28.3828C27.0664 28.1669 27.3995 28.1499 27.6155 28.3449L29.8791 30.388C30.5961 29.6335 31.3402 28.9115 32.1089 28.2228L30.1325 25.9012C29.9439 25.6796 29.9706 25.3472 30.1922 25.1587L30.9208 24.5388C31.1424 24.3503 31.4749 24.377 31.6635 24.5986L33.6404 26.9208C34.4412 26.275 35.2651 25.6632 36.1099 25.086L34.4508 22.5245C34.2926 22.2803 34.3624 21.9542 34.6066 21.7962L35.4098 21.2763C35.654 21.1182 35.9802 21.188 36.1383 21.4322L37.7985 23.9953C38.6844 23.4548 39.5903 22.9508 40.5137 22.4839L39.2023 19.7231C39.0774 19.4603 39.1893 19.1462 39.4521 19.0214L40.3165 18.6111C40.5793 18.4864 40.8935 18.5983 41.0184 18.861L42.3304 21.6232C43.2686 21.2078 44.2225 20.8296 45.1895 20.4894L44.2477 17.5789C44.1582 17.3021 44.31 17.0052 44.5868 16.9157L45.4972 16.6214C45.7741 16.5319 46.0711 16.6837 46.1606 16.9605L47.1024 19.8709C48.0956 19.5777 49.1006 19.3238 50.115 19.1099L49.5627 16.1025C49.5102 15.8164 49.6995 15.5419 49.9857 15.4894L50.9268 15.3168C51.213 15.2643 51.4876 15.4537 51.5401 15.7398L52.0921 18.7458C53.1039 18.5862 54.1232 18.4661 55.1474 18.3864L54.9915 15.337C54.9767 15.0465 55.2002 14.7989 55.4908 14.7841L56.4464 14.7354C56.7369 14.7206 56.9845 14.9441 56.9994 15.2346L57.1552 18.2821C58.1886 18.2552 59.2254 18.2694 60.2633 18.3255L60.5078 15.2861C60.5311 14.9962 60.7851 14.7801 61.0751 14.8034L62.0289 14.8802C62.3189 14.9035 62.5351 15.1575 62.5118 15.4475L62.2674 18.486C63.2836 18.594 64.2992 18.7426 65.3121 18.9326L65.9499 15.9514C66.0108 15.667 66.2908 15.4858 66.5753 15.5466L67.511 15.7468C67.7955 15.8077 67.9768 16.0876 67.916 16.3721L67.2778 19.3545C68.2793 19.5968 69.2765 19.8804 70.2672 20.206L71.2916 17.3296C71.3892 17.0556 71.6905 16.9126 71.9646 17.0102L72.866 17.3312C73.1401 17.4287 73.2832 17.73 73.1856 18.004L72.1604 20.8827C73.1096 21.2498 74.0514 21.6566 74.9837 22.1038L76.3762 19.3804C76.5086 19.1214 76.826 19.0188 77.0851 19.1512L77.9371 19.5867C78.1962 19.7191 78.2988 20.0364 78.1664 20.2954L76.7739 23.0188C77.6918 23.5176 78.582 24.0484 79.4437 24.609L81.1792 22.0938C81.3444 21.8544 81.6725 21.7942 81.912 21.9594L82.6996 22.5026C82.9391 22.6678 82.9994 22.9958 82.8342 23.2352L81.1001 25.7484C81.9351 26.3551 82.7405 26.991 83.5155 27.654L85.5598 25.3903C85.7548 25.1744 86.0879 25.1574 86.3039 25.3523L87.0141 25.9934C87.2301 26.1884 87.2471 26.5214 87.0522 26.7373L85.0087 29.0001C85.7636 29.717 86.4858 30.4609 87.1748 31.2295L89.4968 29.2539C89.7184 29.0654 90.0509 29.0921 90.2394 29.3137L90.8596 30.0422C91.0482 30.2637 91.0215 30.5961 90.7999 30.7846L88.4773 32.7607C89.1233 33.5614 89.7354 34.3852 90.3128 35.2298L92.8749 33.5714C93.1191 33.4133 93.4453 33.4831 93.6034 33.7273L94.1235 34.5303C94.2817 34.7745 94.2119 35.1006 93.9677 35.2586L91.4041 36.9181C91.9447 37.8038 92.449 38.7095 92.9161 39.6327L95.6776 38.3219C95.9404 38.1972 96.2546 38.3091 96.3795 38.5718L96.7899 39.436C96.9148 39.6988 96.8029 40.0129 96.54 40.1377L93.7773 41.449C94.1929 42.3871 94.5713 43.3407 94.9117 44.3075L97.8229 43.3663C98.0997 43.2768 98.3967 43.4286 98.4863 43.7054L98.7808 44.6156C98.8703 44.8924 98.7185 45.1893 98.4417 45.2788L95.5306 46.22C95.824 47.213 96.0781 48.2177 96.2921 49.2318L99.3003 48.68C99.5865 48.6275 99.8611 48.8169 99.9136 49.103L100.086 50.0439C100.139 50.33 99.9495 50.6045 99.6633 50.657L96.6566 51.2085C96.8164 52.22 96.9366 53.239 97.0164 54.263L100.067 54.1075C100.357 54.0927 100.605 54.3161 100.62 54.6066L100.669 55.562C100.683 55.8525 100.46 56.1 100.169 56.1148L97.1209 56.2703C97.148 57.3034 97.1339 58.3399 97.0779 59.3776L100.118 59.6223C100.408 59.6456 100.624 59.8996 100.601 60.1895L100.524 61.1431C100.501 61.433 100.247 61.6491 99.957 61.6258L96.9176 61.3811C96.8097 62.397 96.6611 63.4123 96.4712 64.4249L99.4532 65.0629C99.7378 65.1238 99.9191 65.4037 99.8582 65.6881L99.6581 66.6236C99.5972 66.908 99.3172 67.0892 99.0327 67.0284L96.0494 66.39C95.8072 67.3912 95.5236 68.3881 95.1981 69.3785L98.0753 70.4029C98.3494 70.5005 98.4925 70.8018 98.3949 71.0758L98.0739 71.977C97.9764 72.251 97.675 72.394 97.4009 72.2964L94.5214 71.2712C94.1543 72.22 93.7475 73.1615 93.3003 74.0936L96.0245 75.486C96.2836 75.6184 96.3863 75.9357 96.2539 76.1947L95.8184 77.0464C95.6859 77.3054 95.3686 77.408 95.1095 77.2756L92.3853 75.8832C91.8864 76.8008 91.3556 77.6907 90.7949 78.552L93.311 80.2874C93.5505 80.4526 93.6107 80.7806 93.4455 81.02L92.9022 81.8074C92.737 82.0468 92.409 82.107 92.1695 81.9418L89.6554 80.2079C89.0486 81.0426 88.4126 81.8477 87.7496 82.6224L90.0141 84.6664C90.2301 84.8614 90.2471 85.1944 90.0521 85.4103L89.411 86.1203C89.216 86.3362 88.8829 86.3532 88.6669 86.1583L86.4033 84.1151C85.6863 84.8697 84.9423 85.5917 84.1735 86.2804L86.1499 88.602C86.3385 88.8235 86.3118 89.1559 86.0902 89.3444L85.3616 89.9644C85.14 90.1529 84.8075 90.1261 84.6189 89.9046L82.642 87.5824C81.8413 88.2281 81.0173 88.8399 80.1725 89.4171L81.8316 91.9786C81.9898 92.2228 81.92 92.5489 81.6758 92.707L80.8726 93.2268C80.6284 93.3849 80.3022 93.3151 80.1441 93.071L78.4839 90.5079C77.598 91.0483 76.6921 91.5524 75.7687 92.0192L77.0801 94.7801C77.2049 95.0428 77.0931 95.357 76.8302 95.4817L75.9659 95.892C75.7031 96.0168 75.3888 95.9049 75.264 95.6421L73.952 92.88C73.0137 93.2953 72.0599 93.6735 71.0929 94.0137L72.0347 96.9242C72.1242 97.201 71.9724 97.4979 71.6956 97.5874L70.7852 97.8817C70.5083 97.9712 70.2113 97.8194 70.1218 97.5426L69.18 94.6322C68.1868 94.9254 67.1817 95.1794 66.1674 95.3932L66.7196 98.4007C66.7722 98.6868 66.5828 98.9612 66.2966 99.0137L65.3555 99.1864C65.0693 99.2389 64.7947 99.0495 64.7422 98.7634L64.1902 95.7574C63.1784 95.917 62.1592 96.037 61.135 96.1167L61.2909 99.1661C61.3058 99.4566 61.0822 99.7041 60.7917 99.719L59.8361 99.7677C59.5455 99.7825 59.2979 99.559 59.283 99.2685L59.1272 96.221C58.0938 96.2479 57.057 96.2337 56.0191 96.1776L55.7746 99.217C55.7513 99.507 55.4973 99.7231 55.2073 99.6997L54.2535 99.6229C53.9635 99.5996 53.7473 99.3456 53.7706 99.0557L54.015 96.0171C52.9988 95.9091 51.9832 95.7605 50.9704 95.5705L50.3325 98.5517C50.2716 98.8361 49.9916 99.0174 49.7071 98.9565L48.7714 98.7563C48.4869 98.6954 48.3056 98.4155 48.3665 98.131L49.0046 95.1486C48.0032 94.9063 47.006 94.6227 46.0152 94.2972L44.9908 97.1735C44.8933 97.4475 44.5919 97.5905 44.3178 97.4929L43.4164 97.172C43.1423 97.0744 42.9992 96.7731 43.0968 96.4991L44.122 93.6204C43.1728 93.2533 42.2311 92.8465 41.2987 92.3994L39.9062 95.1227C39.7738 95.3817 39.4564 95.4843 39.1974 95.3519L38.3454 94.9164C38.0863 94.784 37.9836 94.4667 38.116 94.2077L39.5085 91.4843C38.5906 90.9855 37.7004 90.4547 36.8388 89.8941L35.1033 92.4093C34.938 92.6487 34.61 92.7089 34.3705 92.5437L33.5828 92.0005C33.3433 91.8353 33.2831 91.5073 33.4483 91.2679L35.1824 88.7548C34.3473 88.148 33.542 87.5121 32.767 86.8491L30.7227 89.1129C30.5277 89.3288 30.1946 89.3457 29.9786 89.1508L29.2683 88.5097C29.0524 88.3148 29.0353 87.9817 29.2303 87.7658L31.2738 85.5031C30.5189 84.7862 29.7966 84.0422 29.1076 83.2736L26.7856 85.2492C26.5641 85.4378 26.2316 85.411 26.043 85.1895L25.4228 84.4609C25.2342 84.2394 25.2609 83.907 25.4825 83.7185L27.8051 81.7424C27.1591 80.9418 26.547 80.118 25.9696 79.2733L23.4076 80.9317C23.1634 81.0898 22.8372 81.02 22.6791 80.7758L22.1589 79.9728C22.0008 79.7287 22.0706 79.4026 22.3148 79.2445L24.8784 77.5851C24.3377 76.6993 23.8334 75.7936 23.3663 74.8704L20.6049 76.1811C20.342 76.3059 20.0278 76.194 19.903 75.9312L19.4925 75.0671C19.3677 74.8043 19.4796 74.4902 19.7424 74.3654L22.5051 73.0541C22.0895 72.1161 21.7111 71.1624 21.3707 70.1957L18.4596 71.1368C18.1828 71.2263 17.8857 71.0745 17.7962 70.7977L17.5017 69.8875C17.4121 69.6108 17.5639 69.3139 17.8408 69.2244L20.7519 68.2832C20.4585 67.2902 20.2043 66.2854 19.9903 65.2713L16.9821 65.823C16.6959 65.8755 16.4214 65.6862 16.3688 65.4001L16.196 64.4592C16.1435 64.1731 16.3329 63.8986 16.6191 63.8461L19.6258 63.2946C19.4661 62.2831 19.3459 61.2641 19.266 60.2401L16.2158 60.3956C15.9252 60.4105 15.6776 60.187 15.6628 59.8965L15.6139 58.9411C15.5991 58.6506 15.8226 58.4031 16.1132 58.3883L19.1615 58.2329C19.1345 57.1998 19.1485 56.1632 19.2045 55.1255L16.1643 54.8808C15.8743 54.8575 15.6581 54.6035 15.6814 54.3136L15.7581 53.3601C15.7814 53.0701 16.0355 52.854 16.3255 52.8773L19.3649 53.122C19.4728 52.1062 19.6213 51.0908 19.8113 50.0783L16.8292 49.4402C16.5446 49.3793 16.3633 49.0994 16.4242 48.815L16.6243 47.8795C16.6852 47.5951 16.9652 47.4139 17.2497 47.4748L20.233 48.1131C20.4753 47.1119 20.7588 46.115 21.0844 45.1246L18.2072 44.1001C17.9331 44.0026 17.79 43.7013 17.8875 43.4273L18.2085 42.5261C18.3061 42.2521 18.6074 42.1091 18.8815 42.2067L21.761 43.2319C22.1281 42.2831 22.5349 41.3416 22.9821 40.4095L20.2579 39.0171C19.9988 38.8847 19.8962 38.5674 20.0286 38.3084L20.4641 37.4567ZM87.9775 39.9185C84.7845 34.4321 80.0314 29.7672 73.9575 26.6634C67.9311 23.5839 61.42 22.4578 55.1467 23.0516L58.7526 41.8321C60.9779 41.8891 63.2255 42.4327 65.3399 43.5132C67.4692 44.6013 69.2362 46.1177 70.5893 47.9035L87.9775 39.9185ZM90.0944 44.2211C93.7356 53.1418 93.6137 63.5364 88.8821 72.788C87.598 75.2988 86.0467 77.5839 84.2807 79.6262L71.0374 65.8407C71.3966 65.313 71.727 64.7571 72.0252 64.174C73.8793 60.5488 74.1532 56.5318 73.1009 52.9077L90.0944 44.2211ZM44.7455 88.6529C57.1271 94.0146 71.1647 91.4973 80.8872 83.0314L67.0813 69.8199C63.3169 72.4148 58.4911 73.2562 53.9649 71.904L44.7455 88.6529ZM40.4855 86.4481L48.9779 69.3555C45.2169 66.4693 43.0713 62.0445 42.9861 57.4566L24.1619 54.3643C23.1247 66.983 29.1777 79.568 40.4855 86.4481ZM27.8133 41.5817C32.5656 32.2897 40.9759 26.0903 50.392 23.8408L53.1991 42.7184C49.6345 43.9853 46.5283 46.5628 44.6703 50.1956C44.3481 50.8256 44.0737 51.4675 43.8456 52.117L24.8551 49.7833C25.4735 46.9964 26.4528 44.2418 27.8133 41.5817Z" fill="#F3B562"/>
</mask>
<g mask="url(#mask0_795_15574)">
<path d="M13.6934 13.4685H104.452V35.0498V45.8404V51.2357H53.4004V99.7936H47.728H36.3831H13.6934V13.4685Z" fill="#ECB959"/>
</g>
</svg>
