<svg width="52" height="60" viewBox="0 0 52 60" fill="none" xmlns="http://www.w3.org/2000/svg">
<path d="M26.0532 34.332L26.2485 9.705L29.2241 9.8688L32.6912 10.4967L35.776 11.6706L38.6697 12.9809L26.0532 34.332Z" fill="#101010" fill-opacity="0.5"/>
<path fill-rule="evenodd" clip-rule="evenodd" d="M22.0173 0.906034C22.0173 0.552952 22.3036 0.266724 22.6566 0.266724H29.9114C30.2644 0.266724 30.5507 0.552953 30.5507 0.906034V5.06672H27.3507V8.28855C32.5222 8.50049 37.298 10.2466 41.235 13.0839L42.4748 11.6016L41.0473 10.4078L42.4279 8.75711C42.6544 8.48627 43.0576 8.45034 43.3285 8.67686L46.6299 11.438C46.9007 11.6646 46.9366 12.0677 46.7101 12.3386L45.3295 13.9893L43.9022 12.7954L42.7052 14.2266C48.3158 18.9226 51.8841 25.9779 51.8841 33.8667C51.8841 48.0052 40.4226 59.4667 26.2841 59.4667C12.1456 59.4667 0.684082 48.0052 0.684082 33.8667C0.684082 25.9679 4.26141 18.9047 9.88429 14.2087L8.70234 12.7955L7.27496 13.9893L5.89437 12.3386C5.66785 12.0677 5.70378 11.6646 5.97462 11.438L9.27603 8.67686C9.54687 8.45034 9.95006 8.48627 10.1766 8.75711L11.5572 10.4078L10.1297 11.6017L11.3558 13.0676C15.2885 10.2399 20.0558 8.50012 25.2173 8.28855V5.06672H22.0173V0.906034ZM25.2175 57.814V54.1334H27.3508V57.814C31.2721 57.6501 34.9549 56.587 38.1887 54.8303L37.2112 53.2724L38.137 52.6915L39.1381 54.2869C45.856 50.2418 50.4268 43.1208 50.7938 34.9334H46.5511L46.5511 32.8001H50.7938C50.4024 24.0688 45.2302 16.5503 37.7715 12.6817L36.8537 14.4438L35.8843 13.9389L36.7901 12.1999C33.9082 10.8637 30.7174 10.0602 27.3508 9.91945V14.1334H25.2175V9.91946C21.7642 10.0638 18.4958 10.9056 15.5561 12.3044L16.4075 13.9389L15.4381 14.4438L14.5797 12.7958C10.9949 14.7006 7.95039 17.4532 5.72807 20.7781L7.37792 21.863L6.7774 22.7763L5.14155 21.7006C3.1605 24.9798 1.95588 28.7601 1.7748 32.8001H6.01759V34.9334H1.7748C2.1177 42.5838 6.13111 49.3031 12.137 53.4519L13.2027 51.985L14.0869 52.6274L13.0508 54.0536C16.5888 56.2722 20.7483 57.6272 25.2175 57.814ZM6.32539 43.4576L5.86619 42.4658L3.88246 43.3842L4.34166 44.376L6.32539 43.4576ZM45.5771 44.6506L46.1025 43.6921L48.0193 44.743L47.4939 45.7015L45.5771 44.6506ZM44.9139 21.863L45.5144 22.7763L47.3409 21.5752L46.7404 20.6619L44.9139 21.863ZM28.4175 33.8667C28.4175 35.0449 27.4624 36.0001 26.2842 36.0001C25.106 36.0001 24.1509 35.0449 24.1509 33.8667C24.1509 32.6885 25.106 31.7334 26.2842 31.7334C27.4624 31.7334 28.4175 32.6885 28.4175 33.8667Z" fill="#1A1A1A"/>
</svg>
