<svg width="59" height="60" viewBox="0 0 59 60" fill="none" xmlns="http://www.w3.org/2000/svg">
<path fill-rule="evenodd" clip-rule="evenodd" d="M28.0916 11.7629V22.6507H29.2838H30.4759V11.7629V0.875H29.2838H28.0916V11.7629ZM24.515 4.98878C20.3807 5.77658 16.5306 7.57587 13.1041 10.3215C11.6632 11.4761 9.65646 13.633 8.44037 15.3342C7.01465 17.3285 5.58273 20.21 4.90591 22.4466C4.56951 23.5581 4.04352 25.8897 4.04352 26.2693C4.04352 26.3001 4.58764 26.3252 5.25274 26.325L6.46195 26.3246L6.62327 25.4914C7.6897 19.9836 10.8647 14.9621 15.4537 11.5247C18.2971 9.39503 21.6378 7.91952 25.0089 7.30442L25.6391 7.18942V6.00564V4.82185L25.4858 4.82743C25.4015 4.83049 24.9646 4.9031 24.515 4.98878ZM32.9284 5.9991V7.17642L34.1051 7.42596C41.99 9.09833 48.4742 14.8369 51.1159 22.4806C51.451 23.4502 51.8177 24.8221 51.9753 25.6959L52.0888 26.3254H53.3064C53.9761 26.3254 54.524 26.3015 54.524 26.2722C54.524 26.0868 54.1387 24.2395 53.9461 23.5014C51.6405 14.6667 44.4581 7.56444 35.5739 5.33413C34.6925 5.11283 33.2411 4.82185 33.0187 4.82185C32.9472 4.82185 32.9284 5.0671 32.9284 5.9991ZM24.9163 17.4066C22.0772 18.4052 19.6797 20.289 18.0459 22.8048C17.5275 23.6032 16.9839 24.7073 16.6862 25.5664C16.552 25.9537 16.4422 26.2835 16.4422 26.2995C16.4422 26.3154 17.014 26.3201 17.7128 26.3099L18.9833 26.2914L19.0674 26.0486C19.2398 25.5507 19.7137 24.6369 20.1237 24.0112C21.3499 22.1402 23.142 20.6697 25.2288 19.822L25.605 19.6692L25.6236 18.4379C25.6381 17.4759 25.6232 17.2074 25.5555 17.2095C25.5078 17.2111 25.2202 17.2998 24.9163 17.4066ZM32.9284 18.4352V19.6637L33.1498 19.7393C33.6974 19.9264 35.1323 20.7177 35.7216 21.1575C36.8051 21.9662 37.7878 23.0025 38.4694 24.0552C38.7839 24.5409 39.3828 25.7098 39.5231 26.1121L39.5976 26.3254H40.866H42.1345L42.0882 26.1723C41.9183 25.6111 41.5094 24.6173 41.1924 23.9953C39.8508 21.3631 37.8019 19.3587 35.0598 17.9954C34.5236 17.7289 33.1534 17.2068 32.99 17.2068C32.9556 17.2068 32.9284 17.7494 32.9284 18.4352ZM28.3781 26.4994C27.5223 26.7295 26.6763 27.3407 26.2171 28.0606C25.5378 29.1255 25.468 30.4516 26.0294 31.6206C26.2812 32.1451 27.0487 32.9132 27.597 33.1895C29.0149 33.9042 30.6624 33.6701 31.7512 32.5993C34.0699 30.3189 32.4786 26.3698 29.2524 26.3979C28.9699 26.4004 28.5765 26.446 28.3781 26.4994ZM0.0922852 30V31.1569H11.0263H21.9603V30V28.8432H11.0263H0.0922852V30ZM36.6072 30V31.1569H47.5412H58.4752V30V28.8432H47.5412H36.6072V30ZM4.04352 33.7308C4.04352 33.9229 4.3509 35.4328 4.55569 36.2468C5.46243 39.8506 7.15873 43.186 9.61225 46.1894C10.3626 47.108 12.1105 48.8524 13.036 49.6064C16.3715 52.3239 20.0824 54.0974 24.1885 54.9366C24.6304 55.0269 25.1375 55.1217 25.3155 55.1473L25.6391 55.1937V53.9982V52.8027L25.3836 52.7596C23.8937 52.5084 21.6855 51.8587 20.2719 51.2555C13.3631 48.3079 8.32292 42.2267 6.70237 34.8831C6.58887 34.3687 6.49602 33.8864 6.49602 33.8113C6.49602 33.6796 6.45208 33.6747 5.26977 33.6747C4.59533 33.6747 4.04352 33.7 4.04352 33.7308ZM16.4585 33.7583C16.476 33.8058 16.5759 34.1031 16.6805 34.4188C16.9481 35.227 17.7917 36.858 18.3341 37.6156C19.6454 39.4476 21.2879 40.8695 23.2388 41.8618C23.9159 42.2061 25.0102 42.6509 25.4517 42.7612L25.6391 42.8081V41.5699V40.3317L25.4177 40.2538C25.2959 40.211 24.8131 39.9847 24.3447 39.7508C22.1129 38.6366 20.1886 36.5937 19.23 34.3212L18.9716 33.7087L17.6991 33.6902C16.6916 33.6755 16.4331 33.6897 16.4585 33.7583ZM39.4815 33.9301C39.4394 34.0705 39.2655 34.4716 39.0951 34.8214C38.0727 36.9196 36.315 38.6996 34.2228 39.7554C33.7544 39.9918 33.2716 40.2192 33.1498 40.2608L32.9284 40.3364V41.5722V42.8081L33.1158 42.7612C33.2188 42.7355 33.5944 42.6058 33.9503 42.4731C37.536 41.136 40.4829 38.1916 41.8024 34.6274C41.9341 34.2718 42.0627 33.9121 42.0882 33.8278L42.1345 33.6747H40.8463H39.5581L39.4815 33.9301ZM52.0342 33.9299C50.9433 40.3309 47.0788 46.0671 41.4781 49.5988C39.1206 51.0854 35.8834 52.3247 33.218 52.7611L32.9284 52.8085V54.0011V55.1937L33.252 55.1473C33.8293 55.0644 35.1922 54.7724 35.96 54.5672C38.7079 53.8324 41.5591 52.4893 43.9647 50.7966C46.9576 48.6905 49.6704 45.6971 51.4952 42.4871C52.8525 40.0995 53.8838 37.2727 54.3502 34.6614C54.4104 34.3246 54.4766 33.9647 54.4972 33.8618L54.5348 33.6747H53.3063H52.0777L52.0342 33.9299ZM28.0916 48.2135V59.1251H29.2838H30.4759V48.2185V37.3119L29.2838 37.3069L28.0916 37.3018V48.2135Z" fill="#1A1A1A"/>
</svg>
