<svg width="81" height="80" viewBox="0 0 81 80" fill="none" xmlns="http://www.w3.org/2000/svg">
<path fill-rule="evenodd" clip-rule="evenodd" d="M68.8168 40.0001C68.8168 55.9059 55.9226 68.8001 40.0168 68.8001C24.111 68.8001 11.2168 55.9059 11.2168 40.0001C11.2168 24.0943 24.111 11.2001 40.0168 11.2001C48.3983 11.2001 55.9436 14.7805 61.2067 20.4952L59.6467 21.9504C54.7731 16.6529 47.7827 13.3334 40.017 13.3334C25.2894 13.3334 13.3503 25.2725 13.3503 40.0001C13.3503 54.7276 25.2894 66.6667 40.017 66.6667C54.7446 66.6667 66.6836 54.7276 66.6836 40.0001C66.6836 35.9021 65.7592 32.0199 64.1076 28.5509L65.738 27.0301C67.7074 30.928 68.8168 35.3345 68.8168 40.0001Z" fill="#1A1A1A"/>
<path d="M20.9259 37.4026C21.9083 37.0653 24.4865 37.5776 36.1523 45.2142C36.3576 45.3486 36.6368 45.3329 36.818 45.1675L65.3591 19.1101C65.8378 18.6731 66.5372 19.3014 66.1539 19.824L38.4519 57.5927C38.2486 57.8699 37.8406 57.8872 37.6146 57.6281L20.769 38.3178C20.5292 38.043 20.581 37.5211 20.9259 37.4026Z" fill="#1A1A1A" stroke="#1A1A1A" stroke-width="0.536797"/>
</svg>
