<svg width="81" height="80" viewBox="0 0 81 80" fill="none" xmlns="http://www.w3.org/2000/svg">
<path fill-rule="evenodd" clip-rule="evenodd" d="M12.2839 24.2604H55.4839V42.927H56.5506V29.0604C63.0068 29.0604 66.2349 29.0604 68.7817 30.114C72.1852 31.522 74.889 34.2258 76.297 37.6293C77.3506 40.1761 77.3506 43.4042 77.3506 49.8604V51.4604H70.3783C70.4041 51.1977 70.4173 50.9308 70.4173 50.6604C70.4173 46.6839 67.552 43.4604 64.0173 43.4604C60.4827 43.4604 57.6173 46.6839 57.6173 50.6604C57.6173 50.9308 57.6306 51.1977 57.6564 51.4604H56.5506L45.884 51.4604L31.9782 51.4604C32.004 51.1977 32.0173 50.9308 32.0173 50.6604C32.0173 46.6839 29.1519 43.4604 25.6173 43.4604C22.0827 43.4604 19.2173 46.6839 19.2173 50.6604C19.2173 50.9308 19.2305 51.1977 19.2563 51.4604L12.2839 51.4604V42.927H6.95071V40.7937H12.2839V38.6604H9.61732V36.5271H12.2839V35.4604H6.95071V33.327H12.2839V31.1937H3.21729V29.0604H12.2839V24.2604ZM26.4618 54.5939C29.0061 54.1892 30.9508 51.9852 30.9508 49.327C30.9508 46.3815 28.5629 43.9937 25.6174 43.9937C22.6719 43.9937 20.2841 46.3815 20.2841 49.327C20.2841 51.946 22.1718 54.124 24.6608 54.5748C20.7404 54.5313 16.5346 54.4718 12.0262 54.3936L12.0077 55.4605C58.1335 56.2604 72.6654 55.1067 73.9591 54.9219L73.8082 53.8655C73.36 53.9296 71.0481 54.1324 65.8996 54.3187C67.9162 53.5578 69.3505 51.6099 69.3505 49.327C69.3505 46.3815 66.9627 43.9937 64.0172 43.9937C61.0717 43.9937 58.6839 46.3815 58.6839 49.327C58.6839 51.7284 60.271 53.7591 62.4534 54.4275C55.0844 54.6295 43.6001 54.7669 26.4618 54.5939ZM66.1503 31.1937C66.6374 31.1937 67.1149 31.2345 67.5796 31.3129L74.0807 36.5702C74.4698 37.5467 74.6837 38.6119 74.6837 39.7271H57.617V31.1937H66.1503ZM29.9968 34.2309C30.6978 32.9691 31.4583 32.0713 32.2782 31.5376C33.1037 31.0006 33.8328 30.8165 34.4655 30.9852C35.0981 31.1539 35.5103 31.4834 35.702 31.9739C35.8937 32.4643 35.8813 33.1152 35.6649 33.9268C35.4496 34.734 35.028 35.6754 34.4 36.751C33.772 37.8267 33.0696 38.6558 32.2926 39.2384C31.5157 39.821 30.8262 40.0321 30.2241 39.8715C29.622 39.7109 29.1956 39.3823 28.9448 38.8855C28.6941 38.3886 28.6764 37.7366 28.8916 36.9295C29.108 36.1179 29.4764 35.2184 29.9968 34.2309ZM30.9855 34.782C30.4328 35.7328 30.0762 36.6145 29.9156 37.4269C29.7606 38.2361 29.91 38.7012 30.3637 38.8222C30.8218 38.9444 31.2989 38.8028 31.7948 38.3977C32.2908 37.9925 32.844 37.2497 33.4545 36.1694C34.1096 34.9748 34.5075 34.0084 34.6483 33.2701C34.7934 32.5331 34.6391 32.104 34.1854 31.983C33.7316 31.862 33.249 32.0067 32.7377 32.4172C32.2263 32.8276 31.6423 33.6158 30.9855 34.782ZM36.7061 39.5774L37.8722 39.8884L37.3861 41.7113L38.5924 42.033L39.0785 40.2101L41.29 40.7998L41.5224 39.9286L39.3108 39.3389L39.6289 38.146L40.3259 38.3318L40.7548 38.4462C41.5501 38.6583 42.2467 38.7196 42.8448 38.6303C43.4519 38.5433 43.9511 38.3223 44.3425 37.9672C44.7362 37.6033 45.0141 37.1175 45.1761 36.5098C45.4168 35.6073 45.3144 34.843 44.8688 34.217C44.4321 33.5932 43.6285 33.1253 42.4579 32.8132L39.9381 32.1412L38.6942 36.8056L37.5281 36.4946L37.2565 37.5133L38.4226 37.8243L38.1045 39.0172L36.9384 38.7062L36.7061 39.5774ZM40.8522 37.3811L40.5975 37.3132L39.9005 37.1273L40.8727 33.4816L42.0791 33.8032C42.8743 34.0153 43.4203 34.3188 43.717 34.7138C44.0136 35.1087 44.0809 35.61 43.9189 36.2176C43.795 36.6823 43.5945 37.0213 43.3175 37.2345C43.0405 37.4478 42.6944 37.5613 42.2792 37.575C41.8729 37.591 41.3973 37.5264 40.8522 37.3811Z" fill="#1A1A1A"/>
</svg>
