<svg width="81" height="80" viewBox="0 0 81 80" fill="none" xmlns="http://www.w3.org/2000/svg">
<path d="M40.0532 42.332L40.2485 17.705L43.2241 17.8688L46.6912 18.4967L49.776 19.6706L52.6697 20.9809L40.0532 42.332Z" fill="#101010" fill-opacity="0.5"/>
<path fill-rule="evenodd" clip-rule="evenodd" d="M36.0173 8.90603C36.0173 8.55295 36.3036 8.26672 36.6566 8.26672H43.9114C44.2644 8.26672 44.5507 8.55295 44.5507 8.90603V13.0667H41.3507V16.2885C46.5222 16.5005 51.298 18.2466 55.235 21.0839L56.4748 19.6016L55.0473 18.4078L56.4279 16.7571C56.6544 16.4863 57.0576 16.4503 57.3285 16.6769L60.6299 19.438C60.9007 19.6646 60.9366 20.0677 60.7101 20.3386L59.3295 21.9893L57.9022 20.7954L56.7052 22.2266C62.3158 26.9226 65.8841 33.9779 65.8841 41.8667C65.8841 56.0052 54.4226 67.4667 40.2841 67.4667C26.1456 67.4667 14.6841 56.0052 14.6841 41.8667C14.6841 33.9679 18.2614 26.9047 23.8843 22.2087L22.7023 20.7955L21.275 21.9893L19.8944 20.3386C19.6679 20.0677 19.7038 19.6646 19.9746 19.438L23.276 16.6769C23.5469 16.4503 23.9501 16.4863 24.1766 16.7571L25.5572 18.4078L24.1297 19.6017L25.3558 21.0676C29.2885 18.2399 34.0558 16.5001 39.2173 16.2886V13.0667H36.0173V8.90603ZM39.2175 65.814V62.1334H41.3508V65.814C45.2721 65.6501 48.9549 64.587 52.1887 62.8303L51.2112 61.2724L52.137 60.6915L53.1381 62.2869C59.856 58.2418 64.4268 51.1208 64.7938 42.9334H60.5511L60.5511 40.8001H64.7938C64.4024 32.0688 59.2302 24.5503 51.7715 20.6817L50.8537 22.4438L49.8843 21.9389L50.7901 20.1999C47.9082 18.8637 44.7174 18.0602 41.3508 17.9195V22.1334H39.2175V17.9195C35.7642 18.0638 32.4958 18.9056 29.5561 20.3044L30.4075 21.9389L29.4381 22.4438L28.5797 20.7958C24.9949 22.7006 21.9504 25.4532 19.7281 28.7781L21.3779 29.863L20.7774 30.7763L19.1416 29.7006C17.1605 32.9798 15.9559 36.7601 15.7748 40.8001H20.0176V42.9334H15.7748C16.1177 50.5838 20.1311 57.3031 26.137 61.4519L27.2027 59.985L28.0869 60.6274L27.0508 62.0536C30.5888 64.2722 34.7483 65.6272 39.2175 65.814ZM20.3254 51.4576L19.8662 50.4658L17.8825 51.3842L18.3417 52.376L20.3254 51.4576ZM59.5771 52.6506L60.1025 51.6921L62.0193 52.743L61.4939 53.7015L59.5771 52.6506ZM58.9139 29.863L59.5144 30.7763L61.3409 29.5752L60.7404 28.6619L58.9139 29.863ZM42.4175 41.8667C42.4175 43.0449 41.4624 44.0001 40.2842 44.0001C39.106 44.0001 38.1509 43.0449 38.1509 41.8667C38.1509 40.6885 39.106 39.7334 40.2842 39.7334C41.4624 39.7334 42.4175 40.6885 42.4175 41.8667Z" fill="#1A1A1A"/>
</svg>
